# AST/ASF file generated using VICON BodyLanguage
# -----------------------------------------------
:version 1.10
:name VICON
:units
  mass 1.0
  length 0.45
  angle deg
:documentation
   .ast/.asf automatically generated from VICON data using
   VICON BodyBuilder and BodyLanguage model FoxedUp or BRILLIANT.MOD
:root
   order TX TY TZ RX RY RZ
   axis XYZ
   position 0 0 0  
   orientation 0 0 0 
:bonedata
  begin
     id 1 
     name lhipjoint
     direction 0.62366 -0.717238 0.310833 
     length 2.53602 
     axis 0 0 0  XYZ
  end
  begin
     id 2 
     name lfemur
     direction 0.34202 -0.939693 0  
     length 7.40817  
     axis 0 0 20  XYZ
    dof rx ry rz
    limits (-160.0 20.0)
           (-70.0 70.0)
           (-60.0 70.0)
  end
  begin
     id 3 
     name ltibia
     direction 0.34202 -0.939693 0   
     length 7.7045   
     axis 0 0 20   XYZ
    dof rx
    limits (-10.0 170.0)
  end
  begin
     id 4 
     name lfoot
     direction 0.0673888 -0.185149 0.980397   
     length 2.09456   
     axis -90 7.62852e-016 20   XYZ
    dof rx rz
    limits (-45.0 90.0)
           (-70.0 20.0)
  end
  begin
     id 5 
     name ltoes
     direction 1.53575e-011 -4.21994e-011 1   
     length 1.05543   
     axis -90 7.62852e-016 20   XYZ
    dof rx
    limits (-90.0 20.0)
  end
  begin
     id 6 
     name rhipjoint
     direction -0.489018 -0.800347 0.346851   
     length 2.27268  
     axis 0 0 0  XYZ 
  end
  begin
     id 7 
     name rfemur
     direction -0.34202 -0.939693 0   
     length 7.55487   
     axis 0 0 -20   XYZ
    dof rx ry rz
    limits (-160.0 20.0)
           (-70.0 70.0)
           (-70.0 60.0)
  end
  begin
     id 8 
     name rtibia
     direction -0.34202 -0.939693 0   
     length 7.78969   
     axis 0 0 -20   XYZ
    dof rx
    limits (-10.0 170.0)
 end
 begin
     id 9 
     name rfoot
     direction -0.0859318 -0.236096 0.967923   
     length 2.19143  
     axis -90 -7.62852e-016 -20   XYZ
    dof rx rz
    limits (-45.0 90.0)
           (-20.0 70.0)
  end
  begin
     id 10 
     name rtoes
     direction -1.53538e-011 -4.21989e-011 1   
     length 1.09845   
     axis -90 -7.62852e-016 -20   XYZ
    dof rx
    limits (-90.0 20.0)
  end
  begin
     id 11 
     name lowerback
     direction -0.00762546 0.998978 -0.0445553   
     length 1.98161   
     axis 0 0 0   XYZ
    dof rx ry rz
    limits (-20.0 45.0)
           (-30.0 30.0)
           (-30.0 30.0)
  end
  begin
     id 12 
     name upperback
     direction 0.0422361 0.998867 -0.0219156   
     length 1.97558   
     axis 0 0 0   XYZ
    dof rx ry rz
    limits (-20.0 45.0)
           (-30.0 30.0)
           (-30.0 30.0)
  end
  begin
     id 13 
     name thorax
     direction 0.0442465 0.999021 7.47603e-005   
     length 1.97799   
     axis 0 0 0   XYZ
    dof rx ry rz
    limits (-20.0 45.0)
           (-30.0 30.0)
           (-30.0 30.0)
  end
  begin
     id 14 
     name lowerneck
     direction 0.00312169 0.984641 0.174564   
     length 1.78995   
     axis 0 0 0   XYZ
    dof rx ry rz
    limits (-20.0 45.0)
           (-30.0 30.0)
           (-30.0 30.0)
  end
  begin
     id 15 
     name upperneck
     direction -0.0383028 0.985255 -0.166749   
     length 1.83053   
     axis 0 0 0   XYZ
    dof rx ry rz
    limits (-20.0 45.0)
           (-30.0 30.0)
           (-30.0 30.0)
  end
  begin
     id 16
     name head
     direction -0.0129546 0.997059 -0.0755386  
     length 1.84088  
     axis 0 0 0   XYZ
    dof rx ry rz
    limits (-20.0 45.0)
           (-30.0 30.0)
           (-30.0 30.0)
  end
  begin
     id 17 
     name lclavicle
     direction 0.912857 0.370519 -0.171488  
     length 3.51279  
     axis 0 0 0   XYZ
    dof ry rz
    limits (-20.0 10.0)
           (0.0 20.0)
  end
  begin
     id 18 
     name lhumerus
     direction 1 -4.48962e-011 3.64361e-027   
     length 4.95663   
     axis 180 -30 -90   XYZ
    dof rx ry rz
    limits (-60.0 90.0)
           (-90.0 90.0)
           (-90.0 90.0)
  end
  begin
     id 19
     name lradius
     direction 1 -4.48974e-011 5.97202e-027   
     length 3.38177   
     axis 180 -30 -90   XYZ
    dof rx
    limits (-10.0 170.0)
  end
  begin
     id 20
     name lwrist
     direction 1 -4.4896e-011 9.83288e-027   
     length 1.69088   
     axis -9.31221e-015 90 90   XYZ
    dof ry
    limits (-180.0 0.0)
 end
  begin
     id 21 
     name lhand
     direction 1 -4.4902e-011 1.96551e-026   
     length 0.662909   
     axis -1.25475e-014 90 90   XYZ
    dof rx rz
    limits (-90.0 90.0)
           (-45.0 45.0)
  end
  begin
     id 22 
     name lfingers
     direction 1 -4.48971e-011 3.93277e-026   
     length 0.534454   
     axis -2.50945e-014 90 90   XYZ
    dof rx
    limits (0.0 90.0)
  end
  begin
     id 23
     name lthumb
     direction 0.707107 -6.34933e-011 0.707107   
     length 0.767373   
     axis -90 45 -4.80359e-014   XYZ
    dof rx rz
    limits (-45.0 45.0)
           (-45.0 45.0)
  end
  begin
     id 24 
     name rclavicle
     direction -0.900919 0.395364 -0.178976   
     length 3.40627  
     axis 0 0 0   XYZ 
    dof ry rz
    limits (-10.0 20.0)
           (-20.0 0.0)
  end
  begin
     id 25 
     name rhumerus
     direction -1 -4.48969e-011 1.03875e-027  
     length 5.08365   
     axis 180 30 90   XYZ
    dof rx ry rz
    limits (-90.0 60.0)
           (-90.0 90.0)
           (-90.0 90.0)
  end
  begin
     id 26 
     name rradius
     direction -1 -4.48951e-011 5.02733e-027   
     length 3.35984   
     axis 180 30 90   XYZ
    dof rx
    limits (-10.0 170.0)
  end
  begin
     id 27 
     name rwrist
     direction -1 -4.49011e-011 9.82828e-027   
     length 1.67992   
     axis -9.31221e-015 -90 -90   XYZ
    dof ry
    limits (-180.0 0.0)
  end
  begin
     id 28
     name rhand
     direction -1 -4.48894e-011 1.96774e-026   
     length 0.820764   
     axis -1.25475e-014 -90 -90   XYZ
    dof rx rz
    limits (-90.0 90.0)
           (-45.0 45.0)
  end
  begin
     id 29
     name rfingers
     direction -1 -4.49095e-011 3.92833e-026   
     length 0.661721   
     axis -2.50945e-014 -90 -90   XYZ
    dof rx
    limits (0.0 90.0)
  end
  begin
     id 30
     name rthumb
     direction -0.707107 -6.34881e-011 0.707107   
     length 0.950103   
     axis -90 -45 4.80359e-014   XYZ
    dof rx rz
    limits (-45.0 45.0)
           (-45.0 45.0)
  end
:hierarchy
  begin
    root lhipjoint rhipjoint lowerback
    lhipjoint lfemur
    lfemur ltibia
    ltibia lfoot
    lfoot ltoes
    rhipjoint rfemur
    rfemur rtibia
    rtibia rfoot
    rfoot rtoes
    lowerback upperback
    upperback thorax
    thorax lowerneck lclavicle rclavicle
    lowerneck upperneck
    upperneck head
    lclavicle lhumerus
    lhumerus lradius
    lradius lwrist
    lwrist lhand lthumb
    lhand lfingers
    rclavicle rhumerus
    rhumerus rradius
    rradius rwrist
    rwrist rhand rthumb
    rhand rfingers
  end

#!OML:ASF I:\golf\golf\golf 2\Subject 1\2002-09-07\Subject1.ASF
:FULLY-SPECIFIED
:DEGREES
138
root -8.19967 17.6195 1.14776 -12.9071 73.9842 -28.052
lowerback 4.17529 0.604474 -9.09329
upperback 4.78831 0.674108 1.93889
thorax 2.55075 0.0639419 7.14256
lowerneck -13.0065 6.49065 1.45565
upperneck 31.9177 12.4569 -6.85996
head 13.5178 5.01435 -0.944948
rclavicle -1.23246e-014 1.19271e-014
rhumerus -13.4855 -0.804702 -99.2267
rradius 62.1485
rwrist -67.1167
rhand -50.1391 -0.776391
rfingers 7.12502
rthumb -22.7226 -29.4584
lclavicle -1.23246e-014 1.19271e-014
lhumerus 63.4373 -74.4805 37.7873
lradius 25.1597
lwrist 13.1254
lhand 1.25485 40.456
lfingers 7.12502
lthumb -153.208 -111.421
rfemur -35.9881 1.43453 20.7951
rtibia 35.365
rfoot -10.6982 5.68798
rtoes 1.54607
lfemur -19.706 4.90352 1.94486
ltibia 25.2091
lfoot -10.8157 11.2106
ltoes -22.7991
139
root -8.19765 17.6147 1.20402 -12.9179 73.449 -28.059
lowerback 4.11401 0.215 -9.50914
upperback 4.79072 0.152996 1.88383
thorax 2.69462 -0.217053 7.33406
lowerneck -12.8731 7.06875 1.7249
upperneck 31.6432 13.2606 -7.10668
head 13.462 5.36593 -0.961392
rclavicle -1.55052e-014 5.24792e-014
rhumerus -13.54 -0.799485 -99.1302
rradius 63.5705
rwrist -66.9588
rhand -51.0125 0.619388
rfingers 7.12502
rthumb -23.5606 -27.9574
lclavicle -1.55052e-014 5.24792e-014
lhumerus 65.0294 -73.7742 36.5002
lradius 25.2405
lwrist 12.5397
lhand 1.51915 39.1609
lfingers 7.12502
lthumb -152.955 -112.756
rfemur -36.0121 1.42083 21.3294
rtibia 35.4667
rfoot -10.6625 6.30663
rtoes 2.71223
lfemur -19.2789 4.95131 2.37369
ltibia 25.119
lfoot -10.864 11.6177
ltoes -22.8754
140
root -8.19601 17.6084 1.26028 -13.2553 72.9303 -28.3277
lowerback 4.13752 -0.107969 -9.72711
upperback 4.79848 -0.282688 1.8253
thorax 2.78101 -0.446098 7.40398
lowerneck -12.6412 7.6236 1.92002
upperneck 31.3099 14.012 -7.27234
head 13.3475 5.70479 -0.947291
rclavicle -3.57812e-014 1.43125e-014
rhumerus -13.4562 -0.901134 -98.7751
rradius 64.997
rwrist -67.0321
rhand -51.8155 2.21371
rfingers 7.12502
rthumb -24.3306 -26.262
lclavicle -3.57812e-014 1.43125e-014
lhumerus 66.6437 -73.1289 35.3335
lradius 25.3008
lwrist 11.581
lhand 1.70827 37.4845
lfingers 7.12502
lthumb -152.774 -114.46
rfemur -35.9582 1.48298 21.9001
rtibia 35.5813
rfoot -10.6505 6.81584
rtoes 3.78924
lfemur -18.8408 5.05338 2.85883
ltibia 25.0369
lfoot -10.6397 12.1354
ltoes -24.5341
141
root -8.19174 17.5998 1.31514 -13.646 72.4485 -28.6585
lowerback 4.07523 -0.393014 -9.7376
upperback 4.81825 -0.652698 1.67769
thorax 2.90919 -0.636291 7.25608
lowerneck -12.3805 8.09676 2.19085
upperneck 31.0396 14.6103 -7.36314
head 13.2457 5.9957 -0.943355
rclavicle -5.725e-014 -1.90833e-014
rhumerus -13.3064 -1.37058 -98.4842
rradius 66.3072
rwrist -66.614
rhand -52.5233 3.9807
rfingers 7.12502
rthumb -25.0091 -24.4023
lclavicle -5.725e-014 -1.90833e-014
lhumerus 68.9424 -72.5709 33.5512
lradius 25.3719
lwrist 10.5051
lhand 1.69965 36.0354
lfingers 7.12502
lthumb -152.783 -115.908
rfemur -35.9076 1.57398 22.4533
rtibia 35.7346
rfoot -10.7145 7.26117
rtoes 4.67153
lfemur -18.3978 5.20368 3.33488
ltibia 24.9111
lfoot -10.3762 12.6036
ltoes -26.7617
142
root -8.18568 17.5933 1.36671 -13.5859 72.096 -28.5271
lowerback 3.99272 -0.682831 -9.92767
upperback 4.83441 -1.03021 1.54077
thorax 3.05186 -0.83676 7.22014
lowerneck -12.1526 8.48049 2.34203
upperneck 30.8302 15.1133 -7.43157
head 13.1614 6.23297 -0.925593
rclavicle 8.74653e-015 3.49861e-014
rhumerus -13.1464 -1.6784 -98.0167
rradius 67.6101
rwrist -65.9177
rhand -53.1917 5.17711
rfingers 7.12502
rthumb -25.6494 -23.1152
lclavicle 8.74653e-015 3.49861e-014
lhumerus 71.0538 -71.9925 32.166
lradius 25.4152
lwrist 9.45928
lhand 0.970344 34.7516
lfingers 7.12502
lthumb -153.481 -117.084
rfemur -35.87 1.63697 22.7934
rtibia 35.9142
rfoot -10.826 7.58833
rtoes 4.78032
lfemur -18.0529 5.34596 3.57171
ltibia 24.7778
lfoot -10.2788 12.9742
ltoes -26.6425
143
root -8.18088 17.5839 1.41258 -13.7172 71.8197 -28.6516
lowerback 3.9823 -1.03574 -10.1144
upperback 4.77801 -1.5064 1.51064
thorax 3.10106 -1.08187 7.29663
lowerneck -11.9051 8.89631 2.33527
upperneck 30.6418 15.7116 -7.50531
head 13.0773 6.49546 -0.870721
rclavicle 4.53229e-014 -2.06736e-014
rhumerus -12.9797 -2.22424 -97.5071
rradius 69.0763
rwrist -65.1444
rhand -53.6813 5.20217
rfingers 7.12502
rthumb -26.1182 -23.0217
lclavicle 4.53229e-014 -2.06736e-014
lhumerus 71.5666 -71.345 32.5714
lradius 25.4516
lwrist 8.14116
lhand -0.150793 33.6406
lfingers 7.12502
lthumb -154.554 -118.038
rfemur -35.9104 1.60091 23.1801
rtibia 36.1124
rfoot -10.9309 7.94564
rtoes 4.99995
lfemur -17.8388 5.43605 3.85352
ltibia 24.652
lfoot -10.145 13.312
ltoes -25.9938
144
root -8.17813 17.5717 1.45086 -14.1424 71.6026 -29.0854
lowerback 4.09326 -1.50536 -10.2227
upperback 4.68152 -2.15324 1.52435
thorax 3.07472 -1.40535 7.37743
lowerneck -11.5647 9.41583 2.35678
upperneck 30.3946 16.4672 -7.65061
head 12.9719 6.8275 -0.82842
rclavicle 3.18055e-015 -2.38542e-014
rhumerus -12.8217 -2.74937 -97.0706
rradius 70.4212
rwrist -64.2264
rhand -54.1122 5.92359
rfingers 7.12502
rthumb -26.5307 -22.2386
lclavicle 3.18055e-015 -2.38542e-014
lhumerus 71.2888 -70.5795 33.6704
lradius 25.5041
lwrist 6.77767
lhand -1.13177 32.6565
lfingers 7.12502
lthumb -155.494 -118.891
rfemur -35.9921 1.34682 23.6728
rtibia 36.3441
rfoot -11.0322 8.4263
rtoes 5.5077
lfemur -17.5939 5.32269 4.25195
ltibia 24.5055
lfoot -10.1752 13.5611
ltoes -25.2246
145
root -8.17337 17.5625 1.50805 -14.3656 71.1187 -29.1681
lowerback 4.14253 -1.83807 -10.6035
upperback 4.68172 -2.60993 1.53371
thorax 3.16728 -1.65211 7.60433
lowerneck -11.204 9.90034 2.41934
upperneck 30.0657 17.1336 -7.77733
head 12.8254 7.1327 -0.804004
rclavicle 3.81667e-014 3.02153e-014
rhumerus -12.5695 -3.24113 -96.6337
rradius 71.5039
rwrist -62.663
rhand -54.3996 6.38051
rfingers 7.12502
rthumb -26.8057 -21.7398
lclavicle 3.81667e-014 3.02153e-014
lhumerus 72.6504 -69.8483 33.0099
lradius 25.6181
lwrist 5.83489
lhand -1.8502 31.8414
lfingers 7.12502
lthumb -156.183 -119.615
rfemur -35.8905 1.42121 24.177
rtibia 36.5898
rfoot -11.1615 8.80755
rtoes 6.02551
lfemur -16.9573 5.44472 4.7156
ltibia 24.3335
lfoot -10.6074 13.5625
ltoes -23.0731
146
root -8.16655 17.5476 1.55927 -14.3173 70.7027 -28.9832
lowerback 4.1986 -2.12041 -10.8012
upperback 4.65028 -2.99559 1.40148
thorax 3.19044 -1.84854 7.57475
lowerneck -10.8847 10.3107 2.5853
upperneck 29.8119 17.6729 -7.87191
head 12.7187 7.3938 -0.801418
rclavicle 1.59028e-015 9.54166e-015
rhumerus -12.3261 -4.05758 -96.3893
rradius 72.8657
rwrist -61.3147
rhand -54.529 6.22401
rfingers 7.12502
rthumb -26.9296 -21.8773
lclavicle 1.59028e-015 9.54166e-015
lhumerus 74.1145 -69.2774 32.2851
lradius 25.7718
lwrist 4.71475
lhand -2.38042 30.87
lfingers 7.12502
lthumb -156.692 -120.521
rfemur -35.814 1.46224 24.5306
rtibia 36.8296
rfoot -11.286 9.19682
rtoes 6.89241
lfemur -16.2522 5.39049 5.10393
ltibia 24.176
lfoot -11.2208 13.455
ltoes -21.6563
147
root -8.15791 17.5356 1.60557 -13.7914 70.3383 -28.4427
lowerback 4.17051 -2.41013 -10.9161
upperback 4.54096 -3.38302 1.15579
thorax 3.16414 -2.03442 7.37375
lowerneck -10.6191 10.7308 2.80009
upperneck 29.6126 18.2144 -7.92472
head 12.6478 7.66125 -0.786742
rclavicle -1.31993e-013 4.77083e-015
rhumerus -12.1803 -4.88263 -96.2522
rradius 74.7305
rwrist -61.5746
rhand -54.9339 8.44054
rfingers 7.12502
rthumb -27.3169 -19.6003
lclavicle -1.31993e-013 4.77083e-015
lhumerus 74.85 -68.7455 32.3614
lradius 25.9033
lwrist 3.45362
lhand -3.19741 29.4664
lfingers 7.12502
lthumb -157.476 -121.827
rfemur -35.8876 1.55495 24.6979
rtibia 37.0742
rfoot -11.4175 9.5047
rtoes 7.48249
lfemur -15.8459 5.51495 5.21886
ltibia 24.0099
lfoot -11.2422 13.7
ltoes -21.8099
